<svg width="16" height="14" viewBox="0 0 16 14" fill="none" xmlns="http://www.w3.org/2000/svg">
<path d="M7.29984 7.05002L7.78984 9.60002H8.20984L8.69984 7.05002V5.02002H7.29984V7.05002Z" fill="#A43725"/>
<path d="M7.28984 11.9C7.42984 12.04 7.66651 12.11 7.99984 12.11C8.33318 12.11 8.56651 12.04 8.69984 11.9C8.83984 11.76 8.90984 11.59 8.90984 11.39V11.11C8.90984 10.91 8.83984 10.74 8.69984 10.6C8.56651 10.46 8.33318 10.39 7.99984 10.39C7.66651 10.39 7.42984 10.46 7.28984 10.6C7.15651 10.74 7.08984 10.91 7.08984 11.11V11.39C7.08984 11.59 7.15651 11.76 7.28984 11.9Z" fill="#A43725"/>
<path fill-rule="evenodd" clip-rule="evenodd" d="M8 0L16 14H0L8 0ZM1.72318 13L8 2.01556L14.2768 13H1.72318Z" fill="#A43725"/>
</svg>
