<svg width="16" height="16" viewBox="0 0 16 16" fill="none" xmlns="http://www.w3.org/2000/svg">
<path fill-rule="evenodd" clip-rule="evenodd" d="M14.9088 7.99984C14.9088 11.8155 11.8155 14.9088 7.99984 14.9088C4.18413 14.9088 1.09089 11.8155 1.09089 7.99984C1.09089 4.18413 4.18413 1.09089 7.99984 1.09089C11.8155 1.09089 14.9088 4.18413 14.9088 7.99984ZM15.9997 7.99984C15.9997 12.418 12.418 15.9997 7.99984 15.9997C3.58165 15.9997 0 12.418 0 7.99984C0 3.58165 3.58165 0 7.99984 0C12.418 0 15.9997 3.58165 15.9997 7.99984ZM7.46667 11.8667H10V10.8H8.53333V6.80003H6V7.8667H7.46667L7.46667 11.8667ZM8.53333 5.33337V4.00003H7.46667L7.46667 5.33337L8.53333 5.33337Z" fill="#7B5E35"/>
</svg>
